<?xml version="1.0" standalone="no"?>
<!DOCTYPE svg PUBLIC "-//W3C//DTD SVG 20010904//EN"
 "http://www.w3.org/TR/2001/REC-SVG-20010904/DTD/svg10.dtd">
<svg version="1.0" xmlns="http://www.w3.org/2000/svg"
 width="400.000000pt" height="400.000000pt" viewBox="0 0 400.000000 400.000000"
 preserveAspectRatio="xMidYMid meet">
<metadata>
Created by potrace 1.11, written by Peter Selinger 2001-2013
</metadata>
<g transform="translate(0.000000,400.000000) scale(0.100000,-0.100000)"
fill="#000000" stroke="none">
<path d="M1865 3664 c-72 -12 -184 -36 -230 -50 -182 -57 -362 -163 -500 -295
-60 -57 -185 -211 -185 -227 0 -6 -4 -12 -8 -14 -11 -4 -104 -197 -126 -258
-31 -89 -55 -217 -61 -325 -13 -216 24 -413 115 -610 27 -59 111 -198 130
-215 3 -3 17 -21 31 -40 119 -159 344 -318 549 -388 143 -49 151 -51 288 -67
121 -15 143 -15 265 0 72 8 146 20 162 25 17 5 68 22 114 36 79 26 111 40 220
101 196 108 380 305 487 518 44 87 61 132 104 270 39 127 39 452 0 580 -5 17
-17 55 -26 85 -17 56 -22 70 -68 174 -23 51 -90 160 -136 221 -27 35 -194 200
-239 235 -126 99 -319 184 -511 225 -73 16 -316 28 -375 19z m272 -84 c302
-32 577 -184 772 -425 72 -89 98 -130 149 -235 134 -271 148 -616 40 -915
-109 -297 -389 -580 -673 -679 -44 -15 -89 -31 -100 -36 -100 -41 -410 -54
-548 -24 -374 82 -666 309 -834 648 -65 131 -113 342 -113 498 0 136 35 329
77 427 120 278 277 459 518 598 213 123 450 171 712 143z"/>
<path d="M1860 3490 c-14 -4 -40 -8 -57 -9 -41 -1 -42 -16 -4 -35 39 -21 105
-85 124 -122 30 -57 42 -145 29 -210 -39 -194 -220 -292 -426 -231 -50 14
-132 95 -165 162 -26 52 -34 150 -18 208 4 16 3 27 -3 27 -19 0 -195 -186
-242 -256 -50 -75 -48 -86 17 -78 28 4 32 0 58 -51 l28 -56 -31 -53 -30 -53
38 -27 c48 -33 56 -33 102 4 46 36 55 37 103 5 l37 -26 0 -73 0 -73 38 -7 c60
-10 62 -8 83 43 20 46 23 49 66 55 69 9 70 9 93 -39 23 -48 37 -53 109 -39
l32 7 -6 62 -7 62 60 22 59 22 49 -30 c26 -17 50 -31 53 -31 4 0 18 15 33 34
l28 35 -30 48 c-30 48 -30 50 -15 93 23 65 30 70 101 70 l63 0 11 41 c6 23 10
42 8 43 -2 1 -29 17 -60 36 -57 34 -58 35 -58 80 0 51 8 62 87 114 l42 28 -14
35 c-8 20 -15 37 -15 38 0 1 -32 5 -71 7 -39 3 -75 10 -80 15 -5 5 -15 32 -21
61 l-13 52 -80 -1 c-44 -1 -91 -5 -105 -9z"/>
<path d="M2100 3481 c0 -42 18 -61 58 -61 85 0 107 -9 125 -51 18 -41 22 -87
9 -104 -4 -6 -31 -26 -59 -45 -44 -29 -53 -40 -53 -65 0 -27 6 -33 51 -54 27
-13 54 -32 59 -41 14 -26 0 -120 -22 -142 -13 -13 -33 -18 -77 -18 -35 0 -62
-5 -68 -12 -23 -29 -21 -48 8 -87 16 -23 29 -50 29 -62 0 -27 -78 -109 -104
-109 -12 0 -41 11 -65 25 -49 28 -68 30 -94 11 -14 -11 -17 -26 -16 -70 1 -31
-2 -61 -7 -66 -6 -6 -44 -13 -86 -16 l-76 -7 -27 42 c-23 35 -33 41 -61 41
-19 0 -34 -4 -34 -9 0 -5 -3 -16 -6 -25 -4 -10 -1 -16 8 -16 8 0 32 -18 53
-40 l40 -41 -18 -47 c-28 -71 -31 -91 -17 -117 11 -20 21 -23 82 -27 46 -2 72
-9 79 -18 5 -8 8 -46 7 -84 l-3 -69 -50 -26 c-44 -23 -50 -31 -53 -62 -3 -33
0 -37 47 -63 28 -15 53 -31 56 -37 11 -16 -7 -119 -22 -135 -9 -9 -35 -14 -72
-14 -52 0 -59 -2 -69 -25 -16 -35 -15 -44 8 -88 25 -47 25 -56 -2 -92 -58 -73
-57 -73 -147 -33 -35 16 -49 18 -68 9 -14 -6 -23 -17 -21 -23 7 -19 264 -146
320 -157 81 -18 107 -15 118 14 5 14 25 49 44 79 48 75 83 87 266 95 127 5
150 9 181 29 52 32 60 60 58 197 -2 113 -1 123 24 167 32 56 33 68 7 98 -25
29 -25 51 1 83 17 23 19 35 13 85 -7 65 -5 68 86 125 19 13 36 32 38 44 2 13
-26 68 -71 139 -135 215 -144 246 -112 371 14 53 13 66 -4 153 -11 52 -29 142
-40 200 -23 114 -48 203 -65 225 -6 8 -38 19 -71 25 -33 5 -72 13 -87 16 -24
5 -28 3 -28 -15z"/>
<path d="M2360 3436 c0 -3 5 -17 11 -33 6 -15 19 -62 29 -103 10 -41 29 -115
41 -165 27 -106 31 -248 10 -312 -20 -59 -25 -48 176 -381 44 -72 25 -133 -56
-179 -25 -15 -49 -31 -52 -36 -3 -4 -1 -28 4 -52 9 -37 8 -48 -6 -63 -21 -23
-21 -36 -1 -88 15 -41 15 -42 -18 -110 -33 -68 -33 -70 -24 -154 14 -135 -18
-215 -104 -264 -27 -16 -63 -21 -189 -26 -92 -4 -167 -13 -183 -20 -28 -13
-76 -95 -63 -108 9 -10 182 -4 259 8 211 33 430 152 592 321 72 75 178 227
197 283 5 17 13 36 17 41 3 6 14 30 22 55 97 274 85 570 -36 832 -63 138 -203
310 -328 406 -84 64 -298 170 -298 148z"/>
<path d="M1019 2873 c-27 -60 -69 -179 -69 -193 0 -5 17 -10 38 -10 67 0 82
-9 108 -66 21 -46 29 -54 52 -54 22 0 30 7 45 40 9 22 17 42 17 44 0 3 -22 19
-50 37 -58 38 -64 62 -28 130 29 56 17 91 -33 99 -19 4 -40 10 -47 14 -8 5
-19 -8 -33 -41z"/>
<path d="M1316 2681 c-7 -10 17 -21 45 -21 26 0 24 16 -3 24 -31 8 -36 8 -42
-3z"/>
<path d="M1241 2607 c-5 -12 -17 -41 -26 -64 l-17 -43 -57 0 -57 0 -27 60 -26
60 -50 0 c-37 0 -50 -4 -55 -17 -20 -51 -17 -383 2 -383 4 0 21 12 37 26 36
31 67 48 126 68 137 48 297 -23 371 -164 30 -59 33 -204 5 -261 -47 -94 -149
-173 -240 -185 l-48 -7 33 -35 c18 -19 59 -56 91 -83 l57 -48 46 29 c45 28 47
29 83 13 91 -39 87 -39 114 -8 l24 29 -23 44 c-29 55 -29 66 0 117 23 40 23
40 89 43 61 3 67 5 67 25 0 12 3 31 5 42 5 16 -6 26 -53 52 l-58 32 6 53 c7
66 9 69 64 98 45 23 46 24 46 70 l0 48 -74 7 c-75 7 -75 7 -95 46 -27 50 -26
58 4 121 14 28 25 53 25 54 0 1 -15 13 -33 27 l-34 26 -58 -35 -59 -36 -48 23
-48 22 0 69 c0 74 1 73 -63 82 -32 4 -39 2 -46 -17z"/>
<path d="M3552 2513 c-11 -30 -57 -83 -72 -83 -4 0 -10 5 -12 12 -8 23 -38 -1
-37 -29 0 -15 3 -22 6 -15 7 18 30 15 45 -6 7 -10 29 -29 48 -42 19 -13 37
-27 40 -31 6 -7 46 -29 54 -29 3 0 6 6 6 14 0 8 -15 19 -32 26 -28 10 -31 13
-17 22 15 10 14 15 -4 49 -20 38 -20 39 -1 74 17 32 17 36 3 51 -15 14 -17 13
-27 -13z m0 -145 c-5 -5 -19 3 -33 18 -24 25 -24 26 -4 40 19 14 21 13 33 -17
8 -18 9 -36 4 -41z"/>
<path d="M3660 2491 c-14 -4 -27 -17 -31 -31 -5 -22 -7 -23 -14 -7 -8 19 -30
23 -40 7 -4 -6 3 -27 14 -46 12 -19 21 -46 21 -60 0 -19 5 -25 18 -22 11 3 16
12 14 27 -2 20 0 22 13 11 8 -7 15 -19 15 -26 0 -15 26 -19 34 -5 3 5 -1 31
-9 57 -20 65 -19 71 8 78 18 5 20 8 7 16 -17 11 -15 11 -50 1z m9 -86 c3 -17
2 -17 -13 -3 -19 20 -21 31 -3 26 6 -3 14 -13 16 -23z"/>
<path d="M413 2399 c-6 -6 -9 -18 -6 -25 6 -17 -2 -18 -29 -3 -26 14 -33 6
-12 -16 16 -16 16 -17 -12 -14 -32 4 -54 -6 -54 -23 0 -7 15 -9 40 -5 50 6 63
-10 15 -19 -56 -10 -51 -24 8 -24 39 0 58 -5 70 -18 16 -18 15 -18 -33 -8 -68
14 -86 -2 -76 -68 4 -25 11 -46 16 -46 17 0 40 12 40 22 0 17 29 39 42 32 10
-5 10 -4 2 5 -9 10 -17 9 -37 -3 -23 -16 -25 -16 -30 6 -4 12 -1 25 5 29 13 8
74 -14 98 -36 30 -27 42 -3 20 40 -13 26 -16 41 -9 46 14 8 -13 19 -49 19 -25
1 -25 2 -8 12 14 8 24 8 39 -1 14 -9 22 -10 30 -2 14 14 47 14 47 0 0 -8 5 -8
15 1 16 14 21 50 6 50 -5 0 -11 -4 -13 -10 -6 -18 -76 9 -84 33 -5 12 -7 25
-6 30 3 11 -23 8 -35 -4z"/>
<path d="M3579 2219 c-18 -18 -25 -19 -46 -10 -36 16 -43 14 -43 -15 0 -22 -3
-25 -23 -21 -12 4 -29 2 -37 -4 -13 -9 -13 -10 0 -7 18 3 80 -21 80 -32 0 -12
-52 -35 -79 -35 -16 0 -27 -6 -29 -16 -2 -13 5 -16 37 -15 46 1 53 -4 55 -38
0 -15 8 -29 18 -32 26 -8 36 2 30 31 -5 29 1 30 54 12 41 -14 74 -12 74 4 0 5
-8 9 -17 9 -15 0 -15 2 -4 9 8 5 11 16 7 26 -3 10 -1 24 5 31 11 13 -2 37 -23
42 -47 14 -59 36 -28 52 11 6 20 15 20 20 0 17 -29 11 -51 -11z m-8 -50 c39
-14 71 -38 64 -50 -10 -15 -115 32 -115 52 0 12 10 11 51 -2z m4 -59 c9 -15
-14 -40 -36 -40 -11 0 -19 7 -19 15 0 8 7 15 15 15 8 0 15 5 15 10 0 13 17 13
25 0z m45 -35 c0 -10 -10 -15 -27 -15 -27 1 -27 1 -9 15 25 19 36 19 36 0z"/>
<path d="M520 2112 c0 -5 -19 -17 -42 -27 -47 -20 -68 -37 -68 -54 0 -6 -11
-11 -25 -11 -30 0 -31 -12 -9 -76 9 -25 17 -55 19 -67 7 -31 11 -31 70 -1 53
26 92 58 49 39 -10 -4 -36 -10 -56 -13 -35 -4 -38 -2 -52 33 -22 52 -21 67 7
63 16 -2 22 -10 22 -27 0 -13 6 -26 14 -29 8 -2 11 0 8 5 -3 5 4 9 16 9 18 -1
21 4 19 24 -3 24 -2 24 15 6 13 -13 15 -20 6 -23 -25 -9 -13 -23 20 -23 42 0
61 13 55 38 -4 14 0 22 13 25 20 5 26 41 9 52 -6 4 -9 1 -8 -7 2 -9 -10 -14
-36 -16 -32 -3 -38 -1 -33 12 5 11 0 16 -13 16 -14 0 -20 -7 -20 -21 0 -23
-23 -21 -28 3 -2 9 9 20 28 28 18 8 30 20 30 31 0 11 -2 19 -5 19 -3 0 -5 -4
-5 -8z m-65 -82 c3 -5 1 -10 -4 -10 -6 0 -11 5 -11 10 0 6 2 10 4 10 3 0 8 -4
11 -10z m94 -44 c9 -10 8 -15 -4 -20 -8 -3 -15 -4 -15 -2 0 3 -3 11 -6 20 -8
20 9 21 25 2z"/>
<path d="M3414 1935 c-4 -8 -2 -21 4 -28 11 -15 12 -47 0 -47 -4 0 -8 -17 -9
-37 0 -21 -3 -32 -6 -25 -6 15 -23 6 -23 -14 0 -8 9 -14 20 -14 15 0 19 -6 17
-27 -1 -14 4 -28 11 -31 11 -3 12 6 6 43 -5 35 -4 46 5 41 6 -4 11 -20 11 -36
0 -22 4 -28 15 -24 10 4 13 13 10 25 -4 11 -2 19 4 19 6 0 11 -7 11 -15 0 -9
8 -14 20 -12 28 4 35 14 20 32 -9 10 -9 15 -1 15 16 0 5 50 -14 64 -15 11 -15
13 -1 25 9 8 16 9 16 3 0 -6 13 -13 29 -17 16 -3 35 -13 42 -21 15 -18 29 -18
29 -1 0 8 -29 26 -64 41 -36 15 -67 34 -70 42 -3 8 -11 14 -17 14 -8 0 -10
-15 -5 -51 5 -35 4 -49 -4 -44 -6 3 -8 10 -5 15 3 5 1 17 -4 27 -5 10 -12 26
-15 36 -7 21 -25 22 -32 2z m75 -116 c-12 -7 -59 12 -53 22 2 4 17 2 34 -4 16
-6 25 -14 19 -18z"/>
<path d="M558 1923 c6 -2 18 -2 25 0 6 3 1 5 -13 5 -14 0 -19 -2 -12 -5z"/>
<path d="M3320 1868 c0 -7 -3 -23 -6 -35 -5 -17 -2 -23 10 -23 9 0 16 7 16 15
0 8 5 15 10 15 6 0 10 5 10 11 0 5 -4 7 -10 4 -5 -3 -10 1 -10 9 0 9 -4 16
-10 16 -5 0 -10 -6 -10 -12z"/>
<path d="M3375 1870 c-5 -9 13 -56 19 -48 2 1 6 15 10 31 5 20 3 27 -8 27 -8
0 -18 -4 -21 -10z"/>
<path d="M3351 1793 c-1 -18 4 -33 9 -33 12 0 12 17 0 45 -7 17 -9 15 -9 -12z"/>
<path d="M595 1786 c-11 -16 -22 -22 -35 -19 -32 9 -24 -23 13 -48 51 -35 60
-50 39 -65 -23 -18 -32 -17 -32 1 0 8 -4 15 -10 15 -5 0 -10 5 -10 10 0 6 -5
16 -10 23 -47 55 -58 72 -54 79 3 4 -2 8 -10 8 -23 0 -20 -39 4 -58 18 -15 19
-21 9 -50 -8 -23 -8 -36 0 -46 6 -7 8 -15 5 -19 -24 -23 114 -10 143 15 19 16
16 24 -23 68 -36 39 -36 40 -12 40 25 0 60 -31 71 -62 4 -10 11 -18 17 -18 18
0 11 35 -10 50 -11 8 -20 19 -20 24 0 5 3 6 6 3 12 -12 44 14 44 34 0 16 -4
19 -17 14 -45 -18 -54 -18 -60 4 -7 28 -29 27 -48 -3z m-34 -149 c-22 -22 -60
16 -47 49 5 14 10 12 32 -11 17 -18 22 -31 15 -38z"/>
<path d="M3262 1718 c-7 -7 -12 -19 -12 -27 0 -14 2 -14 11 -1 8 11 12 12 16
3 2 -7 11 -13 19 -13 8 0 14 -4 14 -9 0 -6 27 -27 60 -48 66 -41 63 -32 44
-123 -6 -25 -4 -29 10 -24 9 3 16 15 16 26 0 12 9 36 21 55 23 37 16 56 -24
69 -27 8 -119 72 -130 90 -10 17 -29 18 -45 2z"/>
<path d="M3476 1722 c-3 -3 -6 -9 -6 -14 0 -11 37 -10 44 1 6 10 -30 22 -38
13z"/>
<path d="M3260 1642 c0 -4 18 -15 40 -25 47 -20 52 -37 10 -37 -28 0 -30 -2
-30 -41 0 -27 -4 -38 -11 -33 -11 7 -8 62 6 97 4 10 3 17 -4 17 -6 0 -16 -12
-22 -27 l-11 -28 -9 23 c-7 18 -15 23 -36 20 -14 -2 -28 -9 -31 -16 -2 -7 2
-10 12 -6 11 4 19 -3 27 -23 23 -58 61 -133 67 -133 4 0 14 5 22 10 11 8 12
12 3 18 -9 6 -7 11 6 19 15 10 23 8 40 -9 32 -29 54 -16 49 30 -3 20 -8 44
-12 54 -5 11 -2 17 11 20 13 3 3 14 -40 41 -55 35 -87 46 -87 29z m88 -97 c17
-37 15 -65 -5 -65 -13 0 -14 3 -5 12 7 7 12 19 12 28 -1 13 -2 13 -13 -1 -14
-19 -37 -14 -37 8 0 12 3 13 13 4 19 -15 29 -3 16 20 -5 11 -6 19 -1 19 5 0
14 -11 20 -25z"/>
<path d="M726 1582 c-3 -6 -3 -17 0 -25 4 -12 -4 -18 -30 -23 -26 -4 -36 -11
-36 -25 0 -11 7 -19 15 -19 8 0 15 -4 15 -10 0 -14 -31 -12 -60 5 -32 18 -40
18 -40 1 0 -7 14 -16 30 -19 31 -7 42 -27 15 -27 -8 0 -15 -7 -15 -15 0 -19
19 -19 44 0 12 9 29 12 44 8 17 -4 23 -2 18 6 -4 6 -2 11 3 11 6 0 11 -4 11
-9 0 -14 -25 -31 -58 -37 -18 -4 -32 -13 -32 -20 0 -18 10 -18 37 1 11 8 40
17 64 20 24 3 37 2 29 -1 -99 -39 -112 -51 -94 -86 24 -47 49 -53 83 -19 16
16 31 27 34 25 2 -2 4 3 4 11 0 20 -2 19 -44 -10 -34 -22 -37 -23 -49 -7 -19
25 -5 34 115 68 8 3 11 12 8 24 -3 10 1 24 9 31 17 14 18 35 2 45 -7 4 -10 4
-6 -1 8 -8 -44 -45 -63 -45 -6 0 -9 8 -8 18 3 36 -2 51 -18 55 -12 3 -8 5 9 6
15 0 30 -3 33 -9 10 -17 25 -11 25 10 0 11 6 20 14 20 8 0 16 7 20 15 4 12 -3
13 -40 8 -34 -4 -49 -2 -63 11 -11 10 -22 13 -25 8z"/>
<path d="M3083 1430 c-10 -18 -26 -42 -36 -52 -21 -23 -19 -51 5 -56 13 -2 19
7 24 34 6 33 8 35 15 17 4 -11 12 -24 18 -28 14 -8 -12 -60 -34 -69 -15 -5
-15 -7 1 -23 16 -16 18 -16 35 6 11 13 19 32 19 42 0 29 20 23 50 -15 14 -18
13 -18 -10 -12 l-25 7 25 -20 c27 -22 55 -27 65 -11 3 5 -15 30 -39 56 -46 47
-48 58 -13 83 18 13 18 14 2 24 -14 7 -23 3 -42 -19 l-24 -29 5 37 c7 55 -18
71 -41 28z"/>
<path d="M999 1328 c-1 -5 -2 -12 -3 -17 -2 -19 -16 -24 -31 -11 -8 7 -21 10
-29 7 -7 -3 -18 -1 -23 4 -15 15 -55 -48 -47 -73 5 -16 3 -20 -9 -15 -11 4
-14 2 -10 -9 4 -10 0 -12 -11 -8 -9 3 -16 12 -16 20 0 8 -4 14 -10 14 -24 0
-5 -28 58 -88 65 -62 122 -101 122 -84 0 12 -39 52 -51 52 -17 0 -74 58 -65
67 4 4 13 0 20 -10 7 -9 18 -17 23 -17 6 0 17 -10 25 -22 l15 -22 41 41 c23
23 42 46 42 52 0 13 -69 43 -81 35 -20 -12 -8 -34 19 -35 l27 -1 -30 -8 c-16
-4 -25 -8 -19 -9 6 0 11 -8 11 -16 0 -17 -12 -18 -42 -5 -11 5 -14 9 -7 9 7 1
10 6 7 11 -3 6 -2 10 2 10 5 0 9 9 9 20 0 17 -2 18 -16 5 -9 -8 -22 -15 -29
-15 -16 0 -5 59 15 80 12 12 14 11 14 -8 0 -16 6 -22 23 -22 24 0 79 -19 114
-38 17 -9 22 -9 26 3 4 9 -7 22 -29 36 -42 26 -39 37 5 15 39 -21 51 -20 51 2
0 14 -8 17 -40 17 -28 0 -44 6 -54 20 -9 11 -16 17 -17 13z"/>
<path d="M2930 1235 c0 -8 4 -15 10 -15 5 0 7 7 4 15 -4 8 -8 15 -10 15 -2 0
-4 -7 -4 -15z"/>
<path d="M2801 1218 c0 -21 1 -21 8 -4 7 18 8 18 24 -5 21 -29 22 -48 3 -55
-8 -3 -12 -13 -9 -25 6 -22 -12 -26 -21 -4 -5 13 -36 22 -36 10 0 -8 70 -74
90 -85 11 -6 25 -8 30 -5 6 3 10 -1 10 -9 0 -8 8 -19 17 -25 16 -8 31 -1 98
52 5 4 19 14 30 22 19 14 18 16 -32 63 -29 27 -53 47 -53 45 0 -3 12 -25 27
-50 l27 -46 -32 -28 c-40 -36 -62 -37 -62 -4 0 14 6 25 13 25 6 0 12 12 12 26
0 22 -4 25 -26 22 -19 -3 -25 0 -22 9 3 8 15 11 29 9 30 -6 30 0 -1 47 -29 43
-28 42 -49 21 -15 -14 -17 -14 -22 0 -3 9 -17 16 -30 16 -18 0 -24 -5 -23 -22z
m99 -32 c0 -8 -4 -18 -10 -21 -5 -3 -10 3 -10 14 0 12 5 21 10 21 6 0 10 -6
10 -14z m-38 -82 c-7 -12 -11 -13 -17 -4 -4 7 -2 16 6 21 18 11 23 4 11 -17z
m15 -26 c-3 -8 -6 -5 -6 6 -1 11 2 17 5 13 3 -3 4 -12 1 -19z"/>
<path d="M1256 1174 c-8 -21 1 -34 25 -34 22 0 25 16 5 36 -18 18 -22 18 -30
-2z"/>
<path d="M1130 1145 c-10 -12 -7 -17 14 -26 23 -11 37 -31 19 -27 -16 3 -43
-15 -43 -28 0 -17 12 -18 27 -3 12 12 33 4 33 -11 0 -13 -39 -37 -71 -45 -20
-5 -28 -2 -37 17 -6 13 -11 18 -11 12 -1 -5 5 -18 12 -28 11 -16 18 -16 55 -6
51 13 62 8 62 -29 0 -30 45 -85 61 -75 16 10 9 39 -16 63 -29 27 -32 62 -9 82
14 11 18 10 30 -6 20 -26 30 -10 17 26 -11 29 -11 30 14 27 30 -3 43 18 16 25
-10 3 -46 11 -80 17 -35 7 -63 17 -63 21 0 14 -16 11 -30 -6z m107 -50 c7 -20
-28 -49 -39 -32 -4 6 -4 15 -2 19 3 4 0 8 -5 8 -6 0 -11 5 -11 10 0 16 50 11
57 -5z"/>
<path d="M2610 1106 c-8 -11 -9 -20 -1 -33 9 -16 10 -15 11 7 1 22 3 20 17
-13 12 -30 13 -40 3 -53 -7 -8 -19 -13 -27 -10 -21 8 -15 -18 7 -32 11 -7 20
-17 20 -23 0 -5 -11 -2 -25 8 -17 13 -24 28 -25 51 0 17 -4 32 -10 32 -5 0
-10 9 -10 20 0 11 -7 23 -16 27 -19 7 -44 -14 -28 -25 18 -12 25 -59 13 -86
-7 -14 -16 -23 -20 -20 -5 3 -9 -2 -9 -10 0 -9 9 -16 20 -16 17 0 20 -7 21
-42 l2 -43 6 38 c3 21 9 38 14 37 4 0 12 0 18 0 5 0 7 -6 3 -12 -4 -7 -4 -10
0 -6 4 3 21 2 37 -2 26 -8 29 -6 29 13 1 20 2 20 11 5 5 -10 16 -18 24 -18 10
0 12 -6 8 -17 -6 -16 -5 -16 10 -4 9 7 17 22 17 32 0 17 5 18 40 13 21 -4 47
-3 57 1 15 5 11 10 -21 26 -21 10 -43 16 -49 12 -5 -3 -7 -1 -4 4 4 6 1 13 -6
16 -9 3 -12 16 -10 34 4 23 -1 32 -21 42 -13 8 -31 11 -40 8 -10 -4 -17 3 -21
24 -7 31 -25 38 -45 15z m110 -86 c0 -21 -4 -28 -14 -24 -15 6 -28 39 -18 48
15 16 32 3 32 -24z m-15 -49 c-3 -5 -1 -12 4 -15 5 -3 7 -15 4 -26 -7 -27 -28
-10 -31 24 -1 18 3 26 14 26 8 0 13 -4 9 -9z m-90 -42 c11 -17 -1 -21 -15 -4
-8 9 -8 15 -2 15 6 0 14 -5 17 -11z"/>
<path d="M2670 1100 c0 -5 4 -10 9 -10 6 0 13 5 16 10 3 6 -1 10 -9 10 -9 0
-16 -4 -16 -10z"/>
<path d="M3223 1060 c-6 -28 -7 -50 -2 -50 16 0 36 41 31 65 -8 43 -19 37 -29
-15z"/>
<path d="M3170 1042 c-14 -15 -41 -40 -60 -55 l-33 -28 33 -70 c19 -38 37 -66
41 -62 15 15 26 90 17 107 -7 12 -5 22 5 34 8 9 17 26 20 37 3 11 8 30 12 43
8 29 -4 27 -35 -6z"/>
<path d="M1454 1045 c-21 -15 -11 -50 11 -41 17 6 29 -9 20 -24 -5 -8 -11 -8
-20 0 -10 8 -17 5 -29 -12 -21 -30 -21 -49 2 -41 13 4 14 3 6 -6 -19 -21 -46
-1 -42 30 6 36 1 37 -13 2 -7 -18 -6 -30 1 -37 19 -19 10 -26 -31 -26 -33 0
-40 -3 -37 -17 2 -12 17 -20 47 -25 24 -4 64 -18 90 -30 42 -21 111 -34 111
-22 0 3 -10 14 -21 23 l-21 17 21 47 c12 26 24 61 28 79 6 28 4 31 -15 26 -12
-4 -22 -2 -22 3 0 5 11 11 25 15 26 6 34 32 13 39 -37 11 -109 11 -124 0z m66
-29 c0 -3 -4 -8 -10 -11 -5 -3 -10 -1 -10 4 0 6 5 11 10 11 6 0 10 -2 10 -4z
m20 -83 c-4 -16 -12 -39 -17 -53 l-10 -24 -12 21 c-15 30 -14 33 12 34 12 0
16 3 8 6 -11 5 -11 7 0 14 11 7 11 9 1 9 -7 0 -10 5 -7 10 3 6 12 10 20 10 10
0 12 -7 5 -27z m-57 10 c-7 -2 -21 -2 -30 0 -10 3 -4 5 12 5 17 0 24 -2 18 -5z
m-28 -63 c-4 -11 -2 -20 4 -20 6 0 11 5 11 10 0 21 18 9 23 -16 4 -20 1 -24
-12 -18 -9 3 -23 8 -33 11 -16 5 -30 37 -20 47 14 15 33 5 27 -14z m-62 -7
c-7 -2 -19 -2 -25 0 -7 3 -2 5 12 5 14 0 19 -2 13 -5z"/>
<path d="M797 991 l-38 -29 81 -7 c84 -7 110 -2 69 14 -13 5 -33 18 -43 30
-24 26 -23 26 -69 -8z"/>
<path d="M2270 1001 c0 -6 5 -11 10 -11 6 0 10 -17 10 -38 0 -39 -23 -72 -49
-72 -7 0 -11 -6 -8 -12 2 -7 16 -13 31 -13 29 1 29 -2 11 -62 -4 -14 -3 -23 3
-23 6 0 14 14 17 31 8 36 25 21 18 -15 -3 -15 1 -25 11 -29 24 -10 30 16 12
52 -9 16 -16 33 -16 37 0 14 37 -32 44 -54 8 -24 26 -30 26 -9 0 6 -5 29 -11
50 -8 29 -7 42 5 59 14 20 15 18 18 -32 4 -65 19 -78 75 -64 28 7 39 15 41 32
2 14 -2 22 -10 22 -8 0 -24 9 -36 20 -16 15 -22 17 -22 7 0 -8 7 -20 15 -27
18 -15 11 -30 -15 -30 -22 0 -46 35 -30 45 5 3 10 14 10 24 0 10 7 24 15 31
17 14 18 20 6 39 -7 11 -14 9 -37 -13 -32 -29 -44 -32 -45 -13 0 6 -4 3 -9 -8
-4 -11 -5 -33 -2 -50 l5 -30 -21 19 c-26 23 -26 21 -7 40 13 13 13 16 0 30 -9
8 -15 28 -13 43 3 24 -1 28 -24 31 -16 2 -28 -1 -28 -7z"/>
<path d="M1787 994 c-4 -4 -7 -16 -7 -26 0 -14 8 -18 40 -18 43 0 63 21 42 42
-8 8 -13 7 -18 -5 -8 -21 -23 -22 -38 -1 -6 8 -15 12 -19 8z"/>
<path d="M1740 965 c0 -17 5 -25 13 -22 6 2 12 12 12 22 0 10 -6 20 -12 23 -8
2 -13 -6 -13 -23z"/>
<path d="M2085 960 c-3 -5 3 -10 14 -10 12 0 21 5 21 10 0 6 -6 10 -14 10 -8
0 -18 -4 -21 -10z"/>
<path d="M3235 939 c-26 -25 -31 -27 -34 -12 -4 16 -13 -19 -37 -146 -5 -25
-4 -32 5 -27 6 4 14 0 18 -11 3 -10 13 -28 21 -41 l15 -22 31 30 c17 17 35 30
40 30 8 -1 34 75 36 104 0 4 -16 -6 -35 -23 -20 -17 -39 -31 -43 -31 -4 0 -14
13 -23 28 -15 27 -15 28 28 67 47 43 50 50 29 71 -18 18 -15 18 -51 -17z"/>
<path d="M1988 936 c-26 -13 -49 -22 -52 -19 -3 4 -6 -3 -6 -15 0 -15 6 -22
20 -22 11 0 20 4 20 9 0 17 29 20 29 3 0 -9 3 -33 6 -52 3 -19 2 -29 -1 -22
-3 6 -11 9 -16 6 -7 -4 -8 -2 -4 4 4 7 2 20 -3 29 -8 14 -10 -2 -11 -59 0 -61
3 -78 14 -78 11 0 13 10 9 43 -3 27 -1 37 5 29 6 -9 18 -11 35 -6 31 7 34 -2
10 -28 -14 -15 -14 -18 -1 -18 8 0 20 11 26 25 6 14 16 25 22 25 7 0 5 -9 -4
-21 -20 -30 -10 -49 28 -49 68 0 76 7 76 64 -1 30 -7 59 -16 71 -15 19 -16 19
-14 -10 5 -73 0 -93 -22 -98 -12 -4 -23 -5 -25 -4 -5 6 21 82 30 88 6 4 3 17
-7 30 -15 22 -15 25 4 39 13 10 17 19 11 29 -8 12 -15 12 -49 -2 -40 -16 -41
-16 -44 5 -4 31 -18 32 -70 4z m70 -67 c14 0 13 -2 -3 -8 -24 -10 -41 12 -29
37 6 15 8 14 11 -5 3 -13 12 -23 21 -24z m37 3 c-3 -3 -11 0 -18 7 -9 10 -8
11 6 5 10 -3 15 -9 12 -12z m-15 -37 c-14 -17 -40 -20 -40 -4 0 5 4 8 8 5 4
-2 14 -1 22 5 21 13 24 11 10 -6z"/>
<path d="M705 938 c3 -8 -18 -28 -55 -53 -33 -22 -60 -43 -60 -46 -1 -21 103
-25 120 -4 17 21 37 19 45 -5 4 -12 -2 -36 -16 -60 l-23 -41 30 -30 31 -30 28
59 c28 59 28 59 71 58 79 -2 127 62 90 119 -16 24 -32 28 -189 40 -62 5 -76 4
-72 -7z m173 -24 c28 -19 28 -50 0 -65 -17 -9 -28 -8 -55 6 -40 22 -42 35 -5
57 33 21 33 21 60 2z"/>
<path d="M2173 932 c0 -12 5 -22 9 -22 11 0 10 12 -2 30 -7 12 -9 10 -7 -8z"/>
<path d="M1745 933 c-22 -3 -45 -9 -52 -15 -18 -14 -16 -38 2 -38 8 0 15 3 15
8 0 14 80 33 98 23 12 -7 5 -11 -31 -16 -36 -6 -47 -11 -47 -25 0 -13 5 -17
20 -13 11 3 20 1 20 -5 0 -10 -95 -26 -109 -17 -5 2 -11 -2 -14 -9 -7 -18 16
-38 38 -34 10 2 21 -5 26 -14 5 -10 13 -26 18 -35 4 -10 15 -19 23 -21 15 -3
23 13 37 68 6 22 12 25 45 23 31 -2 37 1 34 15 -2 11 -16 19 -38 23 -19 4 -30
7 -23 8 6 0 15 10 18 21 4 14 15 20 36 20 18 0 29 5 29 14 0 25 -36 30 -145
19z m17 -149 c-2 -10 -8 -23 -13 -28 -11 -12 -23 19 -15 40 8 22 32 11 28 -12z"/>
<path d="M2600 883 c0 -5 7 -16 14 -26 16 -20 32 -6 22 18 -5 15 -36 21 -36 8z"/>
<path d="M2978 878 c-8 -7 -20 -26 -26 -43 -5 -16 -24 -67 -41 -112 -21 -57
-26 -80 -16 -77 9 4 17 -8 26 -38 7 -24 16 -47 21 -53 4 -5 8 -17 8 -28 0 -10
5 -17 11 -15 15 5 50 98 37 98 -16 0 -4 55 13 58 8 1 32 -13 52 -32 l37 -35
37 21 36 22 -48 43 c-45 40 -48 44 -37 68 21 45 10 106 -22 127 -18 12 -71 9
-88 -4z m50 -93 c2 -24 -3 -35 -27 -52 -32 -24 -43 -19 -54 27 -5 19 -1 29 16
42 33 27 61 19 65 -17z"/>
<path d="M2930 861 c0 -5 -16 -19 -35 -32 -34 -23 -45 -52 -25 -64 6 -3 10
-16 10 -28 0 -13 4 -17 9 -11 16 16 61 144 51 144 -6 0 -10 -4 -10 -9z"/>
<path d="M3345 838 c-3 -18 -9 -42 -12 -53 -4 -15 1 -12 18 10 23 29 26 51 9
68 -4 5 -11 -6 -15 -25z"/>
<path d="M1015 813 c-34 -9 -106 -66 -122 -97 l-15 -29 46 5 c32 4 56 15 81
37 25 21 46 31 69 31 34 0 63 -21 52 -39 -6 -8 73 -4 83 6 9 8 -36 57 -69 74
-33 18 -82 23 -125 12z"/>
<path d="M619 799 c16 -6 28 -6 35 1 7 7 -1 10 -24 9 -33 0 -34 -1 -11 -10z"/>
<path d="M2783 763 c-15 -10 -23 -26 -23 -44 0 -41 11 -36 38 16 24 48 21 53
-15 28z"/>
<path d="M2796 701 c-27 -51 -27 -53 -15 -122 12 -67 12 -70 -11 -94 -30 -32
-47 -32 -62 0 -16 35 -26 31 -49 -20 -11 -24 -24 -47 -29 -50 -6 -3 -10 -11
-10 -17 0 -6 9 -3 19 6 12 11 21 14 26 7 10 -17 62 -13 110 10 33 16 49 31 66
65 20 42 20 49 9 131 -21 143 -21 144 -54 84z"/>
<path d="M1279 716 c-2 -2 -36 -9 -74 -14 -63 -9 -75 -14 -111 -50 -45 -46
-84 -60 -120 -43 -29 13 -34 57 -6 64 28 8 -59 6 -108 -2 -42 -6 -43 -7 -18
-14 19 -5 33 -19 42 -41 10 -23 27 -39 60 -54 56 -27 82 -27 138 -3 40 17 128
99 128 120 0 9 41 23 48 16 7 -7 -51 -81 -82 -105 -29 -21 -30 -22 -6 -16 14
4 47 12 74 18 34 8 51 19 59 35 12 27 20 29 37 8 12 -14 57 -12 89 5 17 9 -3
21 -89 57 -64 27 -56 24 -61 19z"/>
<path d="M2630 695 c-7 -8 -18 -15 -25 -15 -8 0 -10 -9 -7 -26 4 -24 6 -25 15
-8 6 11 13 21 17 24 7 6 21 40 16 40 -2 0 -9 -7 -16 -15z"/>
<path d="M1018 683 c6 -2 18 -2 25 0 6 3 1 5 -13 5 -14 0 -19 -2 -12 -5z"/>
<path d="M2627 634 c-40 -67 -43 -75 -25 -72 7 2 16 -21 23 -57 7 -33 13 -55
14 -49 0 5 16 36 35 67 19 32 31 55 26 52 -5 -3 -12 4 -14 17 -3 13 -9 41 -13
63 l-9 40 -37 -61z"/>
<path d="M2412 616 c-23 -25 -42 -47 -42 -50 0 -3 11 -6 25 -6 24 0 25 -2 25
-66 0 -36 -5 -75 -11 -87 -6 -12 9 0 34 27 40 44 46 56 49 100 l3 51 48 9 c44
8 47 10 47 38 0 23 -4 28 -17 24 -51 -14 -106 -17 -112 -7 -5 7 -23 -5 -49
-33z"/>
<path d="M1445 625 c-5 -2 -22 -6 -37 -9 -16 -4 -28 -12 -28 -19 0 -21 -38
-39 -60 -27 -26 14 -53 13 -113 -5 -40 -12 -58 -24 -80 -55 l-27 -39 35 -17
c23 -11 46 -14 70 -10 41 8 55 25 26 33 -48 12 -2 69 47 58 35 -7 48 -31 30
-53 -11 -13 -10 -14 12 -8 14 4 38 11 55 15 20 4 26 9 17 14 -20 13 -14 24 16
30 27 6 62 51 62 81 0 16 -5 18 -25 11z"/>
<path d="M2350 613 c-8 -4 -21 -12 -28 -20 -7 -7 -28 -13 -47 -13 -28 0 -33
-4 -38 -27 -7 -38 -3 -40 35 -11 76 56 54 23 -24 -38 -21 -17 -31 -37 -42 -88
-17 -81 -30 -98 -70 -94 -25 2 -32 8 -34 31 -2 15 -5 27 -8 27 -6 0 -114 -81
-114 -86 0 -2 10 1 23 5 16 7 27 4 44 -11 29 -27 111 -28 160 -2 44 24 67 69
83 163 8 51 19 81 34 95 69 68 76 88 26 69z"/>
<path d="M1545 593 c-26 -14 -53 -39 -84 -79 -10 -13 -34 -84 -29 -89 10 -10
90 42 107 70 29 50 65 71 97 56 15 -7 22 -16 18 -23 -5 -8 -2 -9 10 -5 10 4
29 10 42 13 33 9 30 31 -8 54 -40 24 -111 26 -153 3z"/>
<path d="M2105 578 c-29 -11 -45 -25 -45 -40 0 -14 15 -8 50 22 39 32 38 33
-5 18z"/>
<path d="M1977 550 c-35 -26 -36 -29 -17 -35 12 -4 22 -5 23 -3 1 1 10 18 19
36 9 17 16 32 15 31 -1 0 -19 -13 -40 -29z"/>
<path d="M1770 550 c-14 -11 -32 -20 -40 -21 -20 -1 -98 -37 -83 -38 9 -1 9
-8 2 -28 -21 -59 -72 -98 -114 -87 -30 7 -35 47 -7 63 9 6 12 11 7 11 -6 0
-15 -4 -20 -9 -6 -5 -27 -14 -47 -20 -20 -7 -54 -21 -75 -31 l-38 -19 32 5
c26 5 39 1 63 -20 18 -14 43 -29 56 -32 40 -10 114 2 143 23 39 29 80 93 87
136 4 22 15 42 25 48 23 12 23 6 3 -55 -9 -26 -14 -50 -10 -53 11 -11 84 48
90 73 6 23 36 35 36 13 0 -5 20 4 45 22 25 18 45 34 45 36 0 2 -39 3 -87 3
-72 0 -93 -4 -113 -20z"/>
<path d="M2124 552 c-10 -10 -40 -33 -66 -51 -50 -36 -58 -44 -33 -35 18 7 19
-20 6 -79 -10 -42 -9 -41 49 11 14 12 28 22 32 22 5 0 8 10 8 23 0 12 7 46 14
75 8 28 13 52 12 52 -1 0 -11 -8 -22 -18z"/>
<path d="M2997 539 c-4 -16 -3 -18 9 -8 16 13 19 29 5 29 -5 0 -11 -9 -14 -21z"/>
<path d="M1378 475 c-3 -3 -48 -16 -99 -29 l-94 -23 49 -6 c80 -11 92 -9 136
28 23 19 35 35 28 35 -8 0 -17 -2 -20 -5z"/>
<path d="M2458 422 c-32 -37 -48 -64 -48 -83 0 -26 1 -27 32 -18 18 5 34 9 35
9 1 0 5 21 8 48 3 26 11 58 16 71 5 13 8 25 7 26 -2 1 -24 -23 -50 -53z"/>
<path d="M1773 407 c-73 -50 -84 -60 -63 -55 16 3 16 1 5 -49 -8 -39 -7 -39
40 -12 23 14 42 36 52 60 15 39 15 39 72 39 50 0 57 3 68 25 10 23 9 25 -15
25 -15 0 -43 3 -62 5 -29 5 -45 -2 -97 -38z"/>
<path d="M1760 275 c-14 -16 -10 -18 14 -9 9 3 16 10 16 15 0 14 -16 11 -30
-6z"/>
</g>
</svg>
